<?xml version="1.0" encoding="utf-8"?>
<!-- Generator: Adobe Illustrator 19.2.0, SVG Export Plug-In . SVG Version: 6.00 Build 0)  -->
<svg version="1.1" id="Layer_1" xmlns="http://www.w3.org/2000/svg" xmlns:xlink="http://www.w3.org/1999/xlink" x="0px" y="0px"
	 viewBox="0 0 64 64" style="enable-background:new 0 0 64 64;" xml:space="preserve">
<style type="text/css">
	.st0{fill:#DADEE0;}
	.st1{fill:#F7A4A4;}
	.st2{fill:#F78D8D;}
	.st3{fill:#4C5359;}
	.st4{fill:#FF717F;}
	.st5{fill:#94989B;}
	.st6{fill:#F46767;}
</style>
<path class="st0" d="M52.2,11c1.3,9.4,1.1,17-0.8,21.8L34,19.9C37.5,16.3,44.5,12,52.2,11z"/>
<path class="st1" d="M50,32.1l-7.2-9.3c0,0,1.4-5.1,8.1-8.7C53,22.3,50,32.1,50,32.1"/>
<path class="st2" d="M47.3,30l-4.4-5.7c0,0,1.8-3.5,6-5.8C46.4,23.8,47.3,30,47.3,30"/>
<path class="st0" d="M11.8,11c-1.3,9.4-1.1,17,0.8,21.8L30,19.9C26.5,16.3,19.5,12,11.8,11z"/>
<path class="st1" d="M14,32.1l7.2-9.3c0,0-1.4-5.1-8.1-8.7C11,22.3,14,32.1,14,32.1z"/>
<path class="st2" d="M16.7,30l4.4-5.7c0,0-1.8-3.5-6-5.8C17.6,23.8,16.7,30,16.7,30"/>
<path class="st0" d="M50.3,45.1c0.6-0.6,1-1.1,1.2-1.5c1.1-1.9,1.5-3.7,1.5-3.7l-1.4,0.3c0,0,1.6-1.7,1.2-5.5l-1.4,1.5
	c0,0,1.4-3.8,0.2-7.3L50.1,30c0,0,0.5-1.4,0-2.4l-0.7,0.5c0,0,1.2-3.3,0.1-4.6c-0.6,2-1.3,1.9-1.3,1.9s0.9-1.5,0.2-2.1
	c-0.7,1.1-1.3,0.4-1.2,0.1c0-0.4-0.1-1.1,1.9-1.4c-1.6-1-3.5-0.3-3.5-0.3s0.1-1,1.5-1c-1.3-1.1-3.1-0.5-3.1-0.5l0,0
	c-2.9-2.2-6.8-3.4-11.9-3.4c-5.2,0-9.1,1.3-11.9,3.4l0,0c0,0-1.8-0.7-3.1,0.5c1.4,0,1.5,1,1.5,1S16.5,21,14.9,22
	c2,0.3,1.9,0.9,1.9,1.4c0,0.3-0.5,1.1-1.2-0.1c-0.7,0.6,0.2,2.1,0.2,2.1s-0.7,0-1.3-1.9c-1.1,1.4,0.1,4.6,0.1,4.6l-0.7-0.5
	c-0.4,1,0,2.4,0,2.4l-1.5-1.1c-1.2,3.5,0.2,7.3,0.2,7.3l-1.4-1.5c-0.4,3.7,1.2,5.5,1.2,5.5L11,39.9c0,0,0.4,1.9,1.5,3.7
	c0.2,0.4,0.6,0.9,1.2,1.5c0,0,0,0,0,0.1v0C16.6,48.1,23.7,53,32,53C40.3,53,47.4,48.1,50.3,45.1L50.3,45.1
	C50.3,45.2,50.3,45.2,50.3,45.1"/>
<g>
	<path class="st3" d="M34.8,36.7C34.3,36.1,32.5,36,32,36c-0.5,0-2.3,0.1-2.8,0.7c-0.4,0.5-0.1,1.6,1,2.6c0.7,0.6,1.3,0.8,1.8,0.8
		c0.5,0,1.2-0.2,1.8-0.8C34.9,38.4,35.2,37.2,34.8,36.7"/>
	<path class="st3" d="M40.2,41.7c0,3.3-2.7,7.2-8.2,7.2c-5.5,0-8.2-3.9-8.2-7.2c0,0,2.7,0,8.2,0C37.5,41.7,40.2,41.7,40.2,41.7"/>
</g>
<path class="st4" d="M32,45.6c-3.2,0-4.1,2.3-4.1,2.3c0.5,1,7.7,1,8.2,0C36.1,47.9,35.2,45.6,32,45.6"/>
<path class="st3" d="M32,49.4c-5.7,0-8.7-4-8.7-7.7v-0.5h17.5v0.5C40.7,45.4,37.7,49.4,32,49.4 M24.3,42.2c0.3,3.1,2.9,6.2,7.7,6.2
	s7.4-3.1,7.7-6.2H24.3"/>
<g>
	<path class="st5" d="M36,17.1c-1.2-0.2-2.6-0.3-4-0.3c-1.4,0-2.7,0.1-4,0.3c0.5,2.7,1.9,4.6,4,8.1C34.1,21.7,35.5,19.8,36,17.1"/>
	<path class="st5" d="M42.4,19.2c-1.3-0.8-2.9-1.4-4.6-1.8c0.4,1.6,1.3,2.7,2.5,4.9C41.2,20.9,41.9,20.5,42.4,19.2"/>
	<path class="st5" d="M26.2,17.5c-1.7,0.4-3.2,1-4.6,1.8c0.5,1.2,1.2,1.6,2,3.1C24.9,20.2,25.8,19.1,26.2,17.5"/>
</g>
<g>
	<path class="st6" d="M52.2,27.8c-0.3-1.5-1.3-2.7-2.8-3.1c-1.7-0.4-3.2,0.2-4.7,1.5c-0.8-2-2.1-3.5-4.1-4.3c-2-0.8-4-0.3-5.3,1.2
		c-1.3,1.5-1.8,3.7-0.4,6.7c1.3,2.8,7.2,8.4,7.3,8.6c0.2-0.1,6.8-3.8,8.3-5.5C52.2,31,52.5,29.3,52.2,27.8"/>
	<path class="st6" d="M28.6,23c-1.3-1.4-3.2-2-5.3-1.2c-2,0.8-3.3,2.3-4.1,4.3c-1.5-1.3-3-1.9-4.7-1.5c-1.5,0.4-2.5,1.6-2.8,3.1
		c-0.3,1.5,0,3.2,1.6,5c1.6,1.8,8.1,5.4,8.3,5.5c0.2-0.2,6-5.8,7.3-8.6C30.5,26.8,30,24.5,28.6,23"/>
</g>
</svg>
