<svg id="Layer_1" data-name="Layer 1" xmlns="http://www.w3.org/2000/svg" viewBox="0 0 36.01 36"><title>taco</title><path d="M22.63,50c-3.69,0-7.19,0-8.55-18.49C12.21,6.27,45.33,15.42,45.33,30c0,7.93-22.71,20-22.71,20" transform="translate(-13.99 -14)" style="fill:#d3976e"/><path d="M15,31.46c-0.8-10.79,4.82-15.26,11.51-15.73a0.15,0.15,0,0,1,0,0c-7.06.12-13.22,4.51-12.39,15.76,1.26,17.11,4.41,18.48,7.74,18.48-3.09-.53-5.7-2.88-6.86-18.48" transform="translate(-13.99 -14)" style="fill:#fff;opacity:0.5;isolation:isolate"/><path d="M24.4,28.11l-9,3.94-1.34,3,1.59,1-1.15,2.55L15.4,39l-1.23,2.73,2,1.17L15,45.51,17.43,47,17,48l2.69,1.61,0.54-1.18,1.34,1.52,2.17-.56,7-13.49L24.4,28.11" transform="translate(-13.99 -14)" style="fill:#594640"/><path d="M26.6,36.2l1.8-2.4L15,32.05l-1,2.15,2,1.17,0.59-1.31,1,0.61-0.77,1.7-1.36-.82-1,2.16,2,1.17,0.81-1.79,1.3,0.78-0.09.19,1.2,0.72-0.33.38-1.83-1.1-0.77,1.72-1.62-1-1,2.16,2,1.17,0.77-1.72,1.62,1L19,40.27l0.4,0.45-0.63,1.39-0.94-.56L17,43.25l-1.15-.69-1,2.16,2,1.17,0.77-1.69,1.15,0.69,0.2-.44,0.62,0.7-0.31.68L17.92,45l-1,2.16,2,1.17,0.85-1.87,1.41,2L22.49,47l1.08,1.23,1.53-1.74L23.57,44.7l-1.33,1.51-0.42-.48,0.28-.61,1.38-1.63,0.74,0.84,1.53-1.74-1.53-1.74L22.76,42.5,22,41.66,20.83,43l0.8-1.77-0.69-.42,0.41-.46,0.34,0.2,1,1.16L24.23,40,22.7,38.24l-0.11.13L22,38l0.71-.8,1,1.16-0.14.15L25,40.12l-0.32.36,1.53,1.74,1.53-1.74L26.6,36.2" transform="translate(-13.99 -14)" style="fill:#89664c"/><path d="M18.57,35.64l-1.36-.81-0.68,1.5,1.36,0.82Z" transform="translate(-13.99 -14)" style="fill:#d3976e"/><path d="M21.18,34.9L21.6,34l-0.85-.51-0.42.94Z" transform="translate(-13.99 -14)" style="fill:#d3976e"/><path d="M19.14,38.15l-0.42.94,0.85,0.51L20,38.66Z" transform="translate(-13.99 -14)" style="fill:#d3976e"/><path d="M19.48,40.21l-0.42.94,0.85,0.51,0.42-.94Z" transform="translate(-13.99 -14)" style="fill:#d3976e"/><path d="M20.69,37.7l0.85,0.51L22,37.27l-0.85-.51Z" transform="translate(-13.99 -14)" style="fill:#d3976e"/><path d="M15.52,39.62l-0.85-.51-0.43.94,0.85,0.51Z" transform="translate(-13.99 -14)" style="fill:#d3976e"/><path d="M15.6,43.23l-0.42.94L16,44.68l0.42-.94Z" transform="translate(-13.99 -14)" style="fill:#d3976e"/><path d="M17.21,46.62l0.85,0.5,0.42-.94-0.85-.51Z" transform="translate(-13.99 -14)" style="fill:#d3976e"/><path d="M17.19,40.56l0.42-.94-0.85-.51-0.42.94Z" transform="translate(-13.99 -14)" style="fill:#d3976e"/><path d="M17.35,41.25l-0.68,1.5L18,43.56l0.68-1.5Z" transform="translate(-13.99 -14)" style="fill:#d3976e"/><path d="M19.27,44.59l0.85,0.51,0.42-.94-0.85-.51Z" transform="translate(-13.99 -14)" style="fill:#d3976e"/><path d="M20.06,46.82l0.85,0.51,0.42-.94-0.85-.51Z" transform="translate(-13.99 -14)" style="fill:#d3976e"/><path d="M23.73,33.89l-0.67-.76-0.67.76,0.67,0.76Z" transform="translate(-13.99 -14)" style="fill:#d3976e"/><path d="M24.4,36.27l-1.07-1.21-1.07,1.21,1.07,1.21Z" transform="translate(-13.99 -14)" style="fill:#d3976e"/><path d="M24.68,37.35L24,38.11l0.67,0.76,0.67-.76Z" transform="translate(-13.99 -14)" style="fill:#d3976e"/><path d="M25,40L25.7,40.8,26.37,40l-0.67-.76Z" transform="translate(-13.99 -14)" style="fill:#d3976e"/><path d="M22.67,41.06l0.67,0.76L24,41.06l-0.67-.76Z" transform="translate(-13.99 -14)" style="fill:#d3976e"/><path d="M22.86,44.82l0.67,0.76,0.67-.76-0.67-.76Z" transform="translate(-13.99 -14)" style="fill:#d3976e"/><path d="M21.74,47.12l0.67,0.76,0.67-.76-0.67-.76Z" transform="translate(-13.99 -14)" style="fill:#d3976e"/><path d="M40.22,18.08l-5.68-3.77L33.75,14,34,16.34,27.2,14.95l-0.72.21L19.4,20l-2.82,7.22-2,.58V29l4.2-1.2-2,1.92,0.59,2.65L28.23,33.1Z" transform="translate(-13.99 -14)" style="fill:#ffec40"/><path d="M26.3,15.55c-1.33-.26-2.42,1.18-3.68,1.64s1.08,2.29,1.78,2.28h0c0.48,0,.22,0,0,0,2,0,5.9-3.13,1.89-3.93" transform="translate(-13.99 -14)" style="fill:#83bf4f"/><path d="M19.72,23.08c0.47-1.35.3-3.05-1.57-1.87-1.58,1,.14,2.6-1.78,3.5a1.37,1.37,0,1,0,1,2.53c1.38-.6,1.87-2.82,2.31-4.11-0.09.25-.23,0.66,0-0.05" transform="translate(-13.99 -14)" style="fill:#83bf4f"/><path d="M19.72,23.08l0,0.05,0-.05" transform="translate(-13.99 -14)" style="fill:#83bf4f"/><path d="M27.6,31.59c0.15,0.15.32,0.32,0,0s-0.14-.14,0,0c-2.21-2.17-5.44,3-4.72,3.94,2.83,3.72,6.07-2.57,4.73-3.93" transform="translate(-13.99 -14)" style="fill:#83bf4f"/><path d="M20.8,28.11l-1.58,3.68,4,1.43,2.19-4Z" transform="translate(-13.99 -14)" style="fill:#ed4c5c"/><path d="M18.62,27.36l2,1.64,3.41-2.42L21.86,24.8Z" transform="translate(-13.99 -14)" style="fill:#ed4c5c"/><path d="M25.33,24.5l2.79,2.11,3.56-2.16-1.86-2.53Z" transform="translate(-13.99 -14)" style="fill:#ed4c5c"/><path d="M22.33,19.67l0.22,2.9,3.9-1.81-0.16-2-1.81-1Z" transform="translate(-13.99 -14)" style="fill:#ed4c5c"/><path d="M30.45,14.71l-1,3L33.8,18.2l-0.23-3Z" transform="translate(-13.99 -14)" style="fill:#ed4c5c"/><path d="M35,14.6l0.23,3,4-.44,0.5-1.83Z" transform="translate(-13.99 -14)" style="fill:#ed4c5c"/><path d="M33.89,19.83h0" transform="translate(-13.99 -14)" style="fill:#83bf4f"/><path d="M34.4,20c-0.54-.44-1.63,1.31-2.21,1.7s-6.4,1.89-1.52,3.13C32.25,25.23,35.58,21,34.4,20" transform="translate(-13.99 -14)" style="fill:#83bf4f"/><path d="M37,18.65h0" transform="translate(-13.99 -14)" style="fill:#83bf4f"/><path d="M38.76,16.24c-1,1.4-.86-1.56-2.31-0.25A1.68,1.68,0,0,0,37,18.65c0.87,0.52,3.77.21,3.94-1.13,0.13-1-1.44-2.27-2.17-1.28" transform="translate(-13.99 -14)" style="fill:#83bf4f"/><path d="M17,28.4c-0.85,0-2.57,2.21-2.57,2.21-1.58,1.66,1.66,1.7,1.72,2q-0.73.54-1.49,1c0,1.18,2.54-.12,2.33,0-1.43,2.44,4.48-.41,4.84-0.63C23.9,31.72,20.6,28.4,17,28.4" transform="translate(-13.99 -14)" style="fill:#83bf4f"/><path d="M23.62,25.91h0" transform="translate(-13.99 -14)" style="fill:#83bf4f"/><path d="M25,22.59c-2-3.79-2.27,0-2.62.41-0.21.25-3,0-1.76,1.52,0.52,0.64,2.19,1.62,3,1.39A2.4,2.4,0,0,0,25,22.59" transform="translate(-13.99 -14)" style="fill:#83bf4f"/><path d="M25.22,27.17L18.67,28,17,29.32l0.77,0.56,6.43-2.07,1.67-.16Z" transform="translate(-13.99 -14)" style="fill:#ffffd4"/><path d="M30.19,20.43l-2.81-.25L21.2,22.23l1,0.77,5.09-1.63,3-.26Z" transform="translate(-13.99 -14)" style="fill:#ffffd4"/><path d="M26.68,25.54L26,25.6l1.25,3.06L29.09,29l0.5-1.07-1.09-.42Z" transform="translate(-13.99 -14)" style="fill:#ffffd4"/><path d="M25.7,29.44L27,33.15l-1,.67L25,30.53Z" transform="translate(-13.99 -14)" style="fill:#ffffd4"/><path d="M35.94,17.17l-1.22-.35-1-2.82-0.81.07,1,3.28L35.55,18Z" transform="translate(-13.99 -14)" style="fill:#ffffd4"/><path d="M30.57,16l-4.09-.8-0.41.62L30.37,17Z" transform="translate(-13.99 -14)" style="fill:#ffffd4"/><path d="M22.63,50s2.51,0,4-9.73S34.7,17.1,45,17.1c3.57,0,6,2.37,4.63,15.1C49.38,34.45,25.76,50,22.63,50" transform="translate(-13.99 -14)" style="fill:#fbbf67"/><path d="M45,16.49c-13,0-17,14.77-18.39,23.73-1.47,9.73-5.46,9.7-5.46,9.7s2.51,0.32,3.25-.32c1.06-.92,2.32-3.22,3.1-8.39,1.36-9,6.21-23.8,17.84-23.8,3.27,0,4.41,4.75,4.41,4.75S49.16,16.49,45,16.49" transform="translate(-13.99 -14)" style="fill:#fddfb3"/><path d="M36.3,37.3l0.6-.64,0.6,0.64-0.6.64Z" transform="translate(-13.99 -14)" style="fill:#d3976e"/><path d="M37.09,28.87l0.6-.64,0.6,0.64-0.6.64Z" transform="translate(-13.99 -14)" style="fill:#d3976e"/><path d="M46.47,28.87l0.6-.64,0.6,0.64-0.6.64Z" transform="translate(-13.99 -14)" style="fill:#d3976e"/><path d="M45.34,22.26l0.6-.64,0.6,0.64-0.6.64Z" transform="translate(-13.99 -14)" style="fill:#d3976e"/><path d="M41.8,32.82l-0.6.64,0.6,0.64,0.6-.64-0.6-.64" transform="translate(-13.99 -14)" style="fill:#fddfb3"/><path d="M43.19,25.25l-0.6.64,0.6,0.64,0.6-.64-0.6-.64" transform="translate(-13.99 -14)" style="fill:#fddfb3"/><path d="M38.58,23l-0.6.64,0.6,0.64,0.6-.64L38.58,23" transform="translate(-13.99 -14)" style="fill:#fddfb3"/><path d="M32.92,32.48l-0.6.64,0.6,0.64,0.6-.64-0.6-.64" transform="translate(-13.99 -14)" style="fill:#fddfb3"/><path d="M31.54,40.64l-0.6.64,0.6,0.64,0.6-.64-0.6-.64" transform="translate(-13.99 -14)" style="fill:#fddfb3"/></svg>